<svg width="32" height="32" viewBox="0 0 32 32" fill="none" xmlns="http://www.w3.org/2000/svg">
<path d="M9.34318 15.9998C9.34318 15.4475 9.7909 14.9998 10.3432 14.9998H15V10.3429C15 9.79061 15.4477 9.3429 16 9.3429C16.5523 9.3429 17 9.79061 17 10.3429V14.9998H21.6569C22.2092 14.9998 22.6569 15.4475 22.6569 15.9998C22.6569 16.552 22.2092 16.9998 21.6569 16.9998H17V21.6566C17 22.2089 16.5523 22.6566 16 22.6566C15.4477 22.6566 15 22.2089 15 21.6566V16.9998H10.3432C9.7909 16.9998 9.34318 16.552 9.34318 15.9998Z" fill="current"/>
<path fill-rule="evenodd" clip-rule="evenodd" d="M9.75565 5.02477C13.8724 4.56466 18.1276 4.56466 22.2443 5.02477C24.6795 5.29693 26.646 7.21512 26.9325 9.66441C27.4248 13.8736 27.4248 18.1259 26.9325 22.3351C26.646 24.7844 24.6795 26.7026 22.2443 26.9748C18.1276 27.4349 13.8724 27.4349 9.75564 26.9748C7.32047 26.7026 5.35394 24.7844 5.06747 22.3351C4.57517 18.1259 4.57517 13.8736 5.06747 9.66441C5.35394 7.21512 7.32047 5.29693 9.75565 5.02477ZM22.0222 7.01239C18.0531 6.56879 13.9469 6.56879 9.97779 7.01239C8.45188 7.18293 7.23048 8.38726 7.05393 9.89674C6.57968 13.9516 6.57968 18.0479 7.05393 22.1028C7.23048 23.6123 8.45188 24.8166 9.97779 24.9871C13.9469 25.4307 18.0531 25.4307 22.0222 24.9871C23.5481 24.8166 24.7695 23.6123 24.946 22.1028C25.4203 18.0479 25.4203 13.9516 24.946 9.89674C24.7695 8.38726 23.5481 7.18293 22.0222 7.01239Z" fill="current"/>
</svg>
