<svg width="32" height="32" viewBox="0 0 32 32" fill="none" xmlns="http://www.w3.org/2000/svg">
<path fill-rule="evenodd" clip-rule="evenodd" d="M16 6.3335C10.6613 6.3335 6.33337 10.6614 6.33337 16.0002C6.33337 21.3389 10.6613 25.6668 16 25.6668C21.3388 25.6668 25.6667 21.3389 25.6667 16.0002C25.6667 10.6614 21.3388 6.3335 16 6.3335ZM4.33337 16.0002C4.33337 9.55684 9.55672 4.3335 16 4.3335C22.4434 4.3335 27.6667 9.55684 27.6667 16.0002C27.6667 22.4435 22.4434 27.6668 16 27.6668C9.55672 27.6668 4.33337 22.4435 4.33337 16.0002Z" fill="current"/>
<path fill-rule="evenodd" clip-rule="evenodd" d="M14.4664 12.4118C13.2217 13.4359 12.3901 14.8762 12.1256 16.4663L11.5417 19.9767C11.2385 21.7996 13.3581 23.0234 14.7852 21.8494L17.5334 19.5884C18.7782 18.5644 19.6097 17.124 19.8742 15.534L20.4581 12.0236C20.7614 10.2006 18.6417 8.97684 17.2146 10.1509L14.4664 12.4118ZM16 14.0002C14.8955 14.0002 14 14.8956 14 16.0002C14 17.1047 14.8955 18.0002 16 18.0002C17.1046 18.0002 18 17.1047 18 16.0002C18 14.8956 17.1046 14.0002 16 14.0002Z" fill="current"/>
</svg>
