<svg width="32" height="32" viewBox="0 0 32 32" fill="none" xmlns="http://www.w3.org/2000/svg">
<path fill-rule="evenodd" clip-rule="evenodd" d="M4.69914 11.809C5.17158 6.07749 9.96112 1.6665 15.712 1.6665H16.288C22.0389 1.6665 26.8284 6.07749 27.3008 11.809C27.5546 14.8878 26.6036 17.945 24.648 20.3366L18.2573 28.1523C17.0906 29.5791 14.9094 29.5791 13.7427 28.1523L7.35194 20.3366C5.3964 17.945 4.44536 14.8878 4.69914 11.809ZM15.712 3.6665C11.002 3.6665 7.07931 7.27914 6.69238 11.9733C6.48116 14.5357 7.27269 17.0801 8.90024 19.0706L15.291 26.8863C15.6574 27.3345 16.3426 27.3345 16.709 26.8863L23.0997 19.0706C24.7273 17.0801 25.5188 14.5357 25.3076 11.9733C24.9207 7.27914 20.998 3.6665 16.288 3.6665H15.712Z" fill="current"/>
<path d="M17.3333 21.3332C17.3333 22.0695 16.7364 22.6665 16 22.6665C15.2636 22.6665 14.6667 22.0695 14.6667 21.3332C14.6667 20.5968 15.2636 19.9998 16 19.9998C16.7364 19.9998 17.3333 20.5968 17.3333 21.3332Z" fill="current"/>
<path fill-rule="evenodd" clip-rule="evenodd" d="M16 10.3332C14.7377 10.3332 13.6667 11.3937 13.6667 12.7617C13.6667 13.314 13.2189 13.7617 12.6667 13.7617C12.1144 13.7617 11.6667 13.314 11.6667 12.7617C11.6667 10.3427 13.5804 8.33317 16 8.33317C18.4196 8.33317 20.3333 10.3427 20.3333 12.7617C20.3333 14.6697 19.149 16.313 17.464 16.9309C17.2981 16.9918 17.1631 17.0849 17.0816 17.1756C17.0054 17.2605 17 17.3123 17 17.3332C17 17.8855 16.5523 18.3332 16 18.3332C15.4477 18.3332 15 17.8855 15 17.3332C15 16.1017 15.9913 15.3408 16.7754 15.0532C17.6707 14.7249 18.3333 13.8328 18.3333 12.7617C18.3333 11.3937 17.2623 10.3332 16 10.3332Z" fill="current"/>
</svg>
