<svg width="32" height="32" viewBox="0 0 32 32" fill="none" xmlns="http://www.w3.org/2000/svg">
<path fill-rule="evenodd" clip-rule="evenodd" d="M18.0771 7.37882C16.9164 6.265 15.0837 6.265 13.9229 7.37882L7.75436 13.2979C7.60322 13.443 7.50156 13.6319 7.46378 13.8379C6.72494 17.867 6.6704 21.9919 7.30246 26.0391L7.45249 26.9998H11.4211V18.718C11.4211 18.1658 11.8688 17.718 12.4211 17.718H19.579C20.1313 17.718 20.579 18.1658 20.579 18.718V26.9998H24.5476L24.6976 26.0391C25.3297 21.9919 25.2751 17.867 24.5363 13.8379C24.4985 13.6319 24.3969 13.443 24.2457 13.2979L18.0771 7.37882ZM12.5382 5.93572C14.4728 4.07937 17.5273 4.07937 19.4619 5.93572L25.6305 11.8548C26.0845 12.2906 26.39 12.8581 26.5035 13.4772C27.2829 17.7273 27.3404 22.0784 26.6737 26.3477L26.4327 27.891C26.333 28.5293 25.7833 28.9998 25.1373 28.9998H19.579C19.0267 28.9998 18.579 28.5521 18.579 27.9998V19.718H13.4211V27.9998C13.4211 28.5521 12.9734 28.9998 12.4211 28.9998H6.86279C6.21681 28.9998 5.6671 28.5293 5.56743 27.891L5.32641 26.3477C4.65968 22.0784 4.71721 17.7273 5.49658 13.4772C5.61009 12.8581 5.91554 12.2906 6.36963 11.8548L12.5382 5.93572Z" fill="current"/>
</svg>
