<svg width="32" height="32" viewBox="0 0 32 32" fill="none" xmlns="http://www.w3.org/2000/svg">
<path d="M16 24.3332C15.4478 24.3332 15 24.7809 15 25.3332C15 25.8855 15.4478 26.3332 16 26.3332H24C25.2887 26.3332 26.3334 25.2885 26.3334 23.9998V7.99984C26.3334 6.71117 25.2887 5.6665 24 5.6665H16C15.4478 5.6665 15 6.11422 15 6.66651C15 7.21879 15.4478 7.66651 16 7.66651L24 7.6665C24.1841 7.6665 24.3334 7.81574 24.3334 7.99984L24.3334 23.9998C24.3334 24.1839 24.1841 24.3332 24 24.3332H16Z" fill="current"/>
<path fill-rule="evenodd" clip-rule="evenodd" d="M4.33337 17.4868C4.33337 18.4073 5.07956 19.1535 6.00004 19.1535H12.1502C12.1589 19.2514 12.168 19.3492 12.1775 19.4471L12.2495 20.1882C12.3594 21.3191 13.5602 21.9963 14.5848 21.5053C16.7638 20.461 18.8686 18.8939 20.5399 17.1489C21.1589 16.5027 21.1589 15.4835 20.5399 14.8373L20.4077 14.6992C18.7363 12.9542 16.7638 11.5252 14.5848 10.481C13.5602 9.98994 12.3594 10.6672 12.2495 11.798L12.1775 12.5391C12.168 12.637 12.1589 12.7349 12.1502 12.8328L6.00004 12.8328C5.07957 12.8328 4.33337 13.579 4.33337 14.4994V17.4868ZM14.071 18.0408C14.0143 17.5381 13.5885 17.1535 13.0773 17.1535H6.33337L6.33337 14.8328H13.0773C13.6054 14.8328 14.0425 14.4221 14.0754 13.895C14.0996 13.5072 14.1305 13.1197 14.1681 12.7326L14.189 12.5175C15.9288 13.4141 17.5123 14.5877 18.877 15.9931C18.3072 16.5799 17.6992 17.1263 17.0577 17.629C16.1627 18.3303 15.2024 18.9465 14.189 19.4687L14.1681 19.2536C14.1305 18.8666 14.0996 18.479 14.0754 18.0912C14.0743 18.0743 14.0729 18.0574 14.071 18.0408Z" fill="current"/>
</svg>
