<svg width="32" height="32" viewBox="0 0 32 32" fill="none" xmlns="http://www.w3.org/2000/svg">
<path d="M16 24.3332C15.4478 24.3332 15 24.7809 15 25.3332C15 25.8855 15.4478 26.3332 16 26.3332H24C25.2887 26.3332 26.3334 25.2885 26.3334 23.9998V7.99984C26.3334 6.71117 25.2887 5.6665 24 5.6665H16C15.4478 5.6665 15 6.11422 15 6.66651C15 7.21879 15.4478 7.66651 16 7.66651L24 7.6665C24.1841 7.6665 24.3334 7.81574 24.3334 7.99984L24.3334 23.9998C24.3334 24.1839 24.1841 24.3332 24 24.3332H16Z" fill="current"/>
<path fill-rule="evenodd" clip-rule="evenodd" d="M19.3375 19.1535C20.258 19.1535 21.0041 18.4073 21.0041 17.4868V14.4994C21.0041 13.579 20.258 12.8328 19.3375 12.8328L13.1873 12.8328C13.1786 12.7349 13.1695 12.637 13.16 12.5391L13.088 11.798C12.9781 10.6672 11.7773 9.98994 10.7527 10.481C8.57376 11.5252 6.60117 12.9542 4.92985 14.6992L4.79758 14.8373C4.17864 15.4835 4.17864 16.5027 4.79758 17.1489L4.92985 17.287C6.60117 19.032 8.57376 20.461 10.7527 21.5053C11.7773 21.9963 12.9781 21.3191 13.088 20.1882L13.16 19.4471C13.1695 19.3492 13.1786 19.2514 13.1873 19.1535H19.3375ZM12.2602 17.1535C11.905 17.1535 11.5911 17.3392 11.4135 17.6211C11.327 17.7585 11.2729 17.9186 11.2621 18.0912C11.2379 18.479 11.207 18.8666 11.1694 19.2536L11.1485 19.4687C9.76711 18.7568 8.48426 17.8703 7.33121 16.8317C7.03207 16.5623 6.74167 16.2826 6.46054 15.9931C7.82526 14.5877 9.40873 13.4141 11.1485 12.5175L11.1694 12.7326C11.207 13.1197 11.2379 13.5072 11.2621 13.895C11.295 14.4221 11.7321 14.8328 12.2602 14.8328H19.0041V17.1535H12.2602Z" fill="current"/>
</svg>
