<svg width="32" height="32" viewBox="0 0 32 32" fill="none" xmlns="http://www.w3.org/2000/svg">
<path fill-rule="evenodd" clip-rule="evenodd" d="M15.9999 4.10578L13.0495 7.15845C12.7355 7.48337 12.303 7.66685 11.8511 7.66685H7.66661V11.8514C7.66661 12.3032 7.48313 12.7357 7.15821 13.0498L4.10554 16.0002L7.15821 18.9506C7.48313 19.2646 7.66661 19.6971 7.66661 20.149V24.3335H11.8511C12.303 24.3335 12.7355 24.517 13.0495 24.8419L15.9999 27.8946L18.9503 24.8419C19.2644 24.517 19.6969 24.3335 20.1487 24.3335H24.3333V20.149C24.3333 19.6971 24.5168 19.2646 24.8417 18.9506L27.8943 16.0002L24.8417 13.0498C24.5168 12.7358 24.3333 12.3033 24.3333 11.8514V7.66685H20.1487C19.6969 7.66685 19.2644 7.48337 18.9503 7.15845L15.9999 4.10578ZM14.8015 2.46787C15.4567 1.79001 16.5432 1.79001 17.1984 2.46787L20.2902 5.66685H24.6666C25.5871 5.66685 26.3333 6.41304 26.3333 7.33352V11.71L29.5323 14.8018C30.2101 15.4569 30.2101 16.5434 29.5323 17.1986L26.3333 20.2904V24.6669C26.3333 25.5873 25.5871 26.3335 24.6666 26.3335H20.2902L17.1983 29.5325C16.5432 30.2104 15.4567 30.2104 14.8015 29.5325L11.7097 26.3335H7.33327C6.4128 26.3335 5.66661 25.5873 5.66661 24.6669V20.2904L2.46763 17.1986C1.78976 16.5434 1.78976 15.4569 2.46763 14.8018L5.66661 11.71V7.33352C5.66661 6.41304 6.4128 5.66685 7.33327 5.66685H11.7097L14.8015 2.46787Z" fill="current"/>
<path fill-rule="evenodd" clip-rule="evenodd" d="M9.66661 16.0002C9.66661 12.5024 12.5021 9.66685 15.9999 9.66685C19.4977 9.66685 22.3333 12.5024 22.3333 16.0002C22.3333 19.498 19.4977 22.3335 15.9999 22.3335C12.5021 22.3335 9.66661 19.498 9.66661 16.0002ZM15.9999 11.6669C13.6067 11.6669 11.6666 13.607 11.6666 16.0002C11.6666 18.3934 13.6067 20.3335 15.9999 20.3335C18.3932 20.3335 20.3333 18.3934 20.3333 16.0002C20.3333 13.607 18.3932 11.6669 15.9999 11.6669Z" fill="current"/>
</svg>
